<!-- Generator: Adobe Illustrator 18.0.0, SVG Export Plug-In  -->
<?xml version="1.0" encoding="UTF-8"?>
<svg version="1.1" viewBox="0 0 322.25067 66.53688" xmlns="http://www.w3.org/2000/svg">
  <g transform="translate(45.49 -103.38)">
    <path id="TheBeautyRoomLogo" d="m127.76 166.43c0.0944-1.7548 0.17174-5.5341 0.17174-8.3984v-5.2078h1.1823c0.65027 0 1.1823 0.053 1.1823 0.11771 0 0.18106 2.6406 12.284 2.7987 12.828 0.0767 0.26348 0.18586 0.43258 0.24274 0.37576 0.0804-0.0803 3.0014-12.98 3.0014-13.255 0-0.0362 0.46567-0.0657 1.0348-0.0657 1.0196 0 1.037 0.0164 1.1792 1.1154 0.0794 0.61347 0.17533 4.3928 0.21314 8.3985l0.0687 7.283-0.8539-1.1e-4 -0.85388-1.1e-4 -0.0294-3.6087c-0.0162-1.9848-0.10484-4.7306-0.19705-6.1019l-0.16764-2.4933-1.4272 6.1019c-1.3348 5.7068-1.4651 6.1019-2.0122 6.1019-0.62076 0-0.79715-0.60045-2.7755-9.4481l-0.61619-2.7557-0.17402 1.3122c-0.0957 0.72173-0.1844 3.4676-0.19706 6.1019l-0.023 4.7897h-1.9199zm14.966 2.9256c-1.2474-0.5019-1.5195-1.4088-1.6154-5.383-0.12732-5.2817 0.50396-6.4852 3.4018-6.4852 2.3586 0 3.3233 1.3144 3.3671 4.5878l0.0202 1.5091h-4.7292v1.787c0 1.8214 0.2609 2.4636 1.1226 2.7632 0.70529 0.24523 1.5048-0.7082 1.5048-1.7945 0-0.8967 0.025-0.91857 1.0509-0.91857 0.91515 0 1.0508 0.0763 1.0495 0.59051-3e-3 1.163-0.55385 2.5442-1.2253 3.0718-0.73241 0.57549-2.8328 0.72016-3.9469 0.27187zm3.0718-8.075c0-1.3969-0.5539-2.4204-1.3098-2.4204-0.89058 0-1.3176 0.72899-1.3176 2.2496v1.4247h2.6274zm4.4665-0.0584v-8.3984h2.1019v16.797h-2.1019zm6.2829 8.0619c-0.89979-0.69009-1.0282-1.4324-1.0282-5.9451v-4.4789h-0.65684c-0.52547 0-0.65684-0.13122-0.65684-0.65612s0.13137-0.65612 0.65684-0.65612c0.63327 0 0.65684-0.0612 0.65684-1.7059v-1.7059h2.1019v3.4118h0.91957c0.80573 0 0.91957 0.0812 0.91957 0.65612 0 0.57488-0.11384 0.65612-0.91957 0.65612h-0.91957v4.1777c0 2.2977 0.0718 4.3645 0.15948 4.5928 0.0945 0.24618 0.46883 0.41513 0.91957 0.41513 0.66939 0 0.76009 0.0939 0.76009 0.78735 0 0.76551-0.0346 0.78711-1.248 0.779-0.6864-5e-3 -1.4356-0.15222-1.6649-0.32806zm6.1475-0.16037c-1.1259-0.70654-1.3922-1.8039-1.394-5.7448-2e-3 -4.7176 0.6782-5.8916 3.4141-5.8916 2.7359 0 3.4162 1.174 3.4141 5.8916-2e-3 5.0829-0.46506 6.006-3.0955 6.1744-1.165 0.0746-1.6884-0.0215-2.3387-0.4296zm2.8083-1.3404c0.47604-0.47551 0.52547-0.87482 0.52547-4.2441 0-3.0925-0.0733-3.8001-0.43482-4.1992-0.53955-0.59555-1.0876-0.61014-1.7121-0.0456-0.42294 0.38234-0.48047 0.88518-0.48047 4.1992 0 3.4149 0.0488 3.8136 0.52547 4.2897 0.28901 0.28869 0.6437 0.5249 0.78821 0.5249 0.1445 0 0.49919-0.23621 0.7882-0.5249zm4.992-4.1992v-6.0363h1.0509c0.88952 0 1.051 0.0839 1.051 0.5463v0.5463l0.8849-0.5463c0.52723-0.32549 1.3291-0.5463 1.9839-0.5463 1.6861 0 1.8604 0.65072 1.8604 6.9465v5.1262h-2.0905l-0.0714-5.0238c-0.0624-4.3912-0.12751-5.0592-0.51728-5.3045-0.30267-0.19053-0.68249-0.19767-1.1823-0.0222l-0.73638 0.25847-0.0714 5.046-0.0714 5.046h-2.0905v-6.0363zm13.925-2.362v-8.3984h2.8777c1.64 0 3.1683 0.13227 3.5534 0.30752 1.1893 0.5413 1.8234 1.9278 1.8349 4.0123 0.0168 3.0511-1.0214 4.1765-4.1482 4.4965l-1.7532 0.17942v7.801h-2.3646zm5.5986-1.8016c0.63395-0.63326 0.86611-2.5645 0.45705-3.8026-0.25123-0.76044-0.49801-0.99409-1.2786-1.2107-0.53202-0.14761-1.2924-0.26904-1.6898-0.26984l-0.72252-9.9e-4v6.1094l1.3659-0.16158c0.81943-0.0969 1.5668-0.36231 1.8681-0.66329zm5.0656 9.3924c-0.51391-0.61008-0.6802-1.0997-0.6802-2.003 0-1.7601 0.7229-2.7262 2.892-3.8648 1.8009-0.94531 1.8372-0.98483 1.8372-1.9998 0-1.062-0.6891-2.0853-1.4043-2.0853-0.56252 0-1.223 0.89702-1.223 1.661 0 0.64294-0.0871 0.70107-1.0509 0.70107-1.2001 0-1.3348-0.38812-0.67877-1.9564 0.52998-1.2671 1.4163-1.7554 3.1861-1.7554 1.1872 0 1.6202 0.12105 2.1238 0.59354 0.94787 0.88949 1.1449 2.0224 1.2159 6.9897l0.0646 4.5276-0.98526-2.7e-4c-0.8569-2.6e-4 -0.98525-0.0801-0.98525-0.61272 0-0.93658-0.21812-0.96649-1.0425-0.143-1.0652 1.064-2.3463 1.0436-3.2693-0.0521zm3.5686-1.464c0.37666-0.3405 0.48046-0.82394 0.48046-2.2376v-1.8032l-0.765 0.39516c-1.4986 0.77408-2.2183 2.3231-1.7029 3.6648 0.20885 0.54369 1.3772 0.53239 1.9874-0.0193zm4.947-3.7648v-6.0363h1.0509c1.0069 0 1.0509 0.0351 1.0509 0.83882v0.83884l0.8664-0.83884c0.47652-0.46134 1.1268-0.83882 1.445-0.83882 0.49993 0 0.57865 0.1428 0.57865 1.0498 0 1.0428-7e-3 1.0498-1.0102 1.0498-1.7711 0-1.8799 0.31624-1.8799 5.4665v4.5066h-2.1019zm6.8311-2.4932v-8.5296h2.0905l0.0714 5.0521 0.0714 5.0521 1.5764-2.5494 1.5764-2.5494 1.1468-0.01c1.1295-9e-3 1.141-5.2e-4 0.7597 0.58104-0.21291 0.32479-0.86206 1.3658-1.4425 2.3132l-1.0554 1.7227 1.374 3.6575 1.3739 3.6575-0.91584 0.0835c-0.50371 0.046-1.001-0.0131-1.1052-0.13121-0.10415-0.11811-0.6358-1.4548-1.1814-2.9704-0.54565-1.5156-1.0441-2.813-1.1077-2.883-0.0636-0.07-0.34132 0.16619-0.61724 0.52489-0.40927 0.5321-0.50273 1.0993-0.5075 3.0799l-6e-3 2.4276h-2.1019zm-57.145-18.668c-1.4844-0.44247-3.1328-2.0469-4.1005-3.991-0.50556-1.0157-0.53217-1.2564-0.24662-2.2308 0.3994-1.3629 1.008-2.3382 1.3336-2.1371 0.13621 0.0841 0.69261 0.0292 1.2364-0.12196 0.83105-0.23102 1.041-0.20445 1.3161 0.16652 0.18001 0.24277 0.58179 0.46011 0.89285 0.48301 0.7599 0.0559 2.0482 1.6538 2.057 2.5513 5e-3 0.51934 0.14063 0.72173 0.48338 0.72173 1.2849 0 3.3628-3.9091 3.1369-5.9012-0.1485-1.3092-3.2026-9.1613-4.7992-12.339-0.65275-1.2991-1.185-2.4959-1.1827-2.6595 6e-3 -0.40565-0.89113-0.61326-2.6674-0.61754-1.9398-5e-3 -2.3213-0.17194-2.3164-1.0158 6e-3 -1.1065 0.27261-1.2467 2.3606-1.243 1.2913 2e-3 2.378-0.15931 3.1528-0.46877 1.5337-0.61261 4.7528-0.51431 5.4337 0.16591 0.64045 0.63974 0.22945 1.5161-1.23 2.6225-1.5749 1.194-1.5601 1.9756 0.0905 4.7921 0.67279 1.1481 1.2232 2.3013 1.2232 2.5626 0 0.56699 0.92518 2.4453 1.3265 2.693 0.44956 0.27755 1.1912-0.57512 1.5514-1.7836 0.18214-0.61115 0.90968-2.2445 1.6167-3.6296 1.7416-3.4118 1.706-3.8996-0.35966-4.9305-1.1386-0.56819-1.3342-1.8879-0.37307-2.517 1.0026-0.65618 7.8732-0.70632 9.0465-0.0659 0.47431 0.25888 0.85388 0.67602 0.85388 0.93845 0 0.71828-1.0594 1.5499-2.2332 1.7531-1.2197 0.21117-2.2332 0.77924-2.2332 1.2518 0 0.18111-0.22087 0.51819-0.49081 0.74907-0.26994 0.23089-0.57131 0.95609-0.66971 1.6116-0.0984 0.65547-0.34285 1.3277-0.54321 1.4938-0.20037 0.1661-0.61242 1.0692-0.91568 2.0068-0.43015 1.33-3.239 7.768-3.5723 8.1876-0.0379 0.0478-0.31557-0.045-0.61695-0.20606-0.79192-0.42337-0.68152 0.10947 0.14771 0.71285 0.67211 0.48907 0.68167 0.53205 0.2823 1.2685-0.75828 1.3983-1.9693 4.1656-2.1284 4.8637-0.0864 0.37924-0.45411 0.8839-0.81706 1.1215-0.36296 0.23756-0.65993 0.59261-0.65993 0.789 0 0.45629-1.9237 2.2006-2.7896 2.5295-0.8264 0.31385-0.98478 0.30303-2.5965-0.17743zm2.9715-3.7525c0.0705-0.21137-0.1076-0.2944-0.50926-0.23738-0.33975 0.0482-0.65705 0.29373-0.70509 0.54554-0.0715 0.3748 0.0209 0.41785 0.50926 0.23737 0.32813-0.12125 0.64543-0.36674 0.70509-0.54553zm-20.64-5.2463c-0.74952-0.70473-1.1166-1.2709-1.1166-1.7222 0-0.4628-0.20511-0.76564-0.65824-0.97187-0.45347-0.20639-0.74233-0.63329-0.92854-1.3722-0.14867-0.58995-0.39789-1.3679-0.5538-1.7288-0.33263-0.76984-0.31108-4.245 0.0334-5.3802 0.13139-0.43305 0.38367-1.649 0.5606-2.702 0.39695-2.3624 0.22068-2.6085-2.1032-2.9366-1.275-0.18001-1.8548-0.42125-2.6474-1.1014-1.4636-1.256-1.3865-1.8645 0.31999-2.5243 0.75865-0.29331 1.8421-0.59799 2.4076-0.67708 0.56555-0.079 1.1567-0.27173 1.3137-0.42807 0.15698-0.15635 0.34576-1.5881 0.41952-3.1816l0.13411-2.8973 1.0111-0.92563c1.0049-0.91993 1.0143-0.92246 1.5271-0.41022 0.43519 0.43473 0.5287 0.94978 0.59733 3.2904 0.0866 2.9535 0.46846 4.2908 1.3005 4.5546 0.27548 0.0873 1.8126 0.24369 3.4157 0.34743 2.7494 0.17793 4.8854 0.72936 4.8854 1.2612 0 0.12412-0.16777 0.45493-0.37282 0.73512-0.32187 0.43981-0.79771 0.5274-3.4812 0.64068-3.4056 0.14378-4.4839 0.52808-5.092 1.8149-0.32456 0.68678-0.38359 6.2811-0.0804 7.6282 0.27871 1.2386 1.1285 3.9465 1.3941 4.4422 0.41722 0.77872 1.7385 1.1246 3.0074 0.78723 1.6384-0.43559 2.0074-0.88072 1.826-2.2028-0.14865-1.0833-0.11906-1.139 1.0982-2.0674 1.3597-1.0371 2.6949-1.2614 3.2844-0.55183 0.27346 0.32913 0.2263 0.84216-0.25934 2.8213-0.79824 3.2531-1.2476 4.2971-2.115 4.9141-0.94338 0.67099-3.259 1.2331-5.909 1.4345l-2.1019 0.15967zm74.673 0.41069c-0.87203-0.3097-2.0543-0.8949-2.6274-1.3004-0.57302-0.40555-1.6264-1.1142-2.3409-1.5747-0.80284-0.51752-1.7311-1.4703-2.4303-2.4945-1.2251-1.7944-1.382-2.7127-0.85427-4.9989 0.19101-0.82752 0.1799-1.2461-0.04-1.5109-0.23119-0.27825-0.22444-0.65113 0.0281-1.5522 0.18283-0.65229 0.43443-1.249 0.55913-1.326 0.12466-0.077 0.22668-0.42824 0.22668-0.78058s0.11518-0.64063 0.25598-0.64063 0.43549-0.34672 0.65487-0.77049c0.21936-0.42376 1.0796-1.2921 1.9116-1.9297 1.212-0.92875 1.9045-1.241 3.4832-1.5705 3.223-0.6727 4.3108-0.72761 5.9525-0.30046 2.2966 0.59753 3.1311 1.1631 3.0246 2.05-0.0755 0.62844-4e-3 0.71687 0.52547 0.65098 0.96818-0.12044 2.0278 0.77582 2.8569 2.4165 1.1011 2.1789 1.2421 3.3957 0.52724 4.551-0.31626 0.51116-0.49943 1.0516-0.40703 1.2009 0.25777 0.41663 0.65261 0.0424 0.49286-0.46718-0.12319-0.39298-0.0902-0.38842 0.25738 0.0355 0.31284 0.38168 0.33794 0.63603 0.11657 1.181-0.15517 0.38201-0.26714 0.96031-0.24883 1.2851 0.0184 0.32478-0.0836 0.59051-0.2265 0.59051-0.14288 0-0.2598 0.5905-0.2598 1.3122 0 0.72173-0.0902 1.3122-0.20044 1.3122s-0.31715 0.26573-0.45978 0.59051c-0.14264 0.32479-0.7024 0.82671-1.2439 1.1154-0.54149 0.28871-0.9904 0.70206-0.99755 0.91858-7e-3 0.21652-0.59451 0.80702-1.3052 1.3122-1.0533 0.74878-1.5488 0.92536-2.6807 0.95527-0.76372 0.0202-1.7432 0.0964-2.1768 0.1694-0.45978 0.0775-1.4488-0.10189-2.3737-0.43036zm5.6186-4.2346c0.64026-0.66736 1.5613-1.516 2.0467-1.8859 0.67654-0.51546 0.88263-0.86796 0.88263-1.5097 0-1.1393 0.55207-1.8478 1.2897-1.6552 0.44376 0.11592 0.56029 0.0489 0.49586-0.28516-0.0481-0.24917-0.41985-0.49477-0.86584-0.57194-0.71097-0.12301-0.79885-0.25379-0.97155-1.4455-0.1044-0.72063-0.40448-2.0128-0.66682-2.8714-0.46706-1.5287-0.50791-1.5736-1.9659-2.1591-2.1292-0.85499-6.1768-0.92512-7.7294-0.13391-1.2331 0.62842-2.3616 1.8601-2.9299 3.198-0.82894 1.9512-0.15386 7.0861 0.93155 7.0861 0.18578 0 0.46975 0.28934 0.63104 0.64296 0.4384 0.96112 3.0361 2.6083 4.4247 2.8057 2.3412 0.33275 3.1572 0.10881 4.4272-1.215zm18.816 4.2346c-0.87203-0.3097-2.0543-0.8949-2.6274-1.3004-0.57302-0.40555-1.6264-1.1142-2.3409-1.5747-0.80285-0.51752-1.7311-1.4703-2.4303-2.4945-1.2251-1.7944-1.382-2.7127-0.85426-4.9989 0.19101-0.82752 0.17989-1.2461-0.04-1.5109-0.23118-0.27825-0.22443-0.65113 0.0281-1.5522 0.18284-0.65229 0.43444-1.249 0.55913-1.326 0.12466-0.077 0.22669-0.42824 0.22669-0.78058s0.11518-0.64063 0.25598-0.64063 0.43548-0.34672 0.65487-0.77049c0.21936-0.42376 1.0796-1.2921 1.9116-1.9297 1.2119-0.92875 1.9045-1.241 3.4832-1.5705 3.223-0.6727 4.3108-0.72761 5.9524-0.30046 2.2966 0.59753 3.1311 1.1631 3.0246 2.05-0.0755 0.62844-4e-3 0.71687 0.52546 0.65098 0.96818-0.12044 2.0278 0.77582 2.8569 2.4165 1.1011 2.1789 1.242 3.3957 0.52723 4.551-0.31625 0.51116-0.49943 1.0516-0.40703 1.2009 0.25777 0.41663 0.65261 0.0424 0.49287-0.46718-0.1232-0.39298-0.0902-0.38842 0.25738 0.0355 0.31284 0.38168 0.33793 0.63603 0.11657 1.181-0.15517 0.38201-0.26714 0.96031-0.24883 1.2851 0.0184 0.32478-0.0836 0.59051-0.22651 0.59051-0.14287 0-0.25979 0.5905-0.25979 1.3122 0 0.72173-0.0902 1.3122-0.20044 1.3122-0.11025 0-0.31715 0.26573-0.45979 0.59051-0.14264 0.32479-0.7024 0.82671-1.2439 1.1154-0.54149 0.28871-0.9904 0.70206-0.99755 0.91858-7e-3 0.21652-0.59451 0.80702-1.3052 1.3122-1.0533 0.74878-1.5488 0.92536-2.6807 0.95527-0.76372 0.0202-1.7432 0.0964-2.1768 0.1694-0.45979 0.0775-1.4488-0.10189-2.3737-0.43036zm5.6186-4.2346c0.64025-0.66736 1.5613-1.516 2.0467-1.8859 0.67654-0.51546 0.88263-0.86796 0.88263-1.5097 0-1.1393 0.55207-1.8478 1.2897-1.6552 0.44376 0.11592 0.56029 0.0489 0.49587-0.28516-0.0481-0.24917-0.41985-0.49477-0.86584-0.57194-0.71097-0.12301-0.79886-0.25379-0.97155-1.4455-0.10441-0.72063-0.40449-2.0128-0.66682-2.8714-0.46707-1.5287-0.50792-1.5736-1.9659-2.1591-2.1292-0.85499-6.1768-0.92512-7.7294-0.13391-1.2332 0.62842-2.3616 1.8601-2.9299 3.198-0.82894 1.9512-0.15386 7.0861 0.93154 7.0861 0.18579 0 0.46975 0.28934 0.63105 0.64296 0.43839 0.96112 3.0361 2.6083 4.4247 2.8057 2.3412 0.33275 3.1572 0.10881 4.4272-1.215zm-258.95 4.284c-1.0364-0.23184-1.1166-0.31174-1.1166-1.1122 0-1.0971 0.6903-1.7311 1.8848-1.7311 0.6056 0 1.0963-0.19034 1.4244-0.55254 0.46436-0.51263 0.5017-1.0481 0.51704-7.4142 0.0091-3.7739-0.06797-7.0389-0.17125-7.2555-0.10328-0.21662-0.06936-1.5015 0.07537-2.8552 0.14474-1.3538 0.16268-2.5347 0.03988-2.6243-0.1228-0.0896-0.40062-0.69437-0.61738-1.3439-0.37086-1.1114-0.46066-1.1899-1.5227-1.3315-1.2465-0.16617-2.0347-0.80196-2.2898-1.8472-0.15907-0.65171-0.10498-0.69415 1.1001-0.863 3.6155-0.50663 3.6394-0.50594 4.6142 0.13237 0.8658 0.56692 0.94226 0.72581 1.0562 2.1946 0.06755 0.8709 0.01062 1.7259-0.12652 1.9-0.13713 0.17411-0.16208 0.45758-0.05545 0.62993 0.10664 0.17235 0.22044 1.2109 0.2529 2.3079 0.10437 3.5275 1.0198 4.2879 3.0052 2.4962 0.574-0.51801 1.5981-1.1085 2.2758-1.3122 1.3715-0.41232 3.929-0.49762 4.1512-0.13843 0.078939 0.12758 0.69054 0.48881 1.3591 0.80273 1.2265 0.57592 2.2594 1.5703 3.0084 2.8963 0.30813 0.54553 0.38066 1.2587 0.29722 2.9225-0.0607 1.2105-0.10014 2.5552-0.087643 2.9882 0.012506 0.43303 0.025984 1.8503 0.029989 3.1494 0.00962 3.1217 0.27834 3.7209 2.0121 4.4869 1.5782 0.6972 2.0558 1.3386 1.6975 2.28-0.23215 0.60995-0.36265 0.63956-3.4813 0.78968-2.6479 0.12747-3.2934 0.0867-3.5318-0.22283-0.38261-0.49688-0.51069-0.48108-1.3952 0.17216-0.61068 0.45099-0.84712 0.49694-1.303 0.25321-0.63178-0.33775-0.68952-0.56682-0.25284-1.003 0.23037-0.23013 0.22033-0.40471-0.041413-0.71974-0.50662-0.60977-0.065879-0.89645 1.721-1.1194 1.3692-0.17085 1.6005-0.2854 1.9197-0.95059 0.56943-1.1868 0.67454-4.7295 0.20566-6.9317-0.29889-1.4037-0.33432-2.0768-0.13261-2.519 0.33057-0.72473-0.23436-2.6221-1.153-3.8723-0.58461-0.79566-0.60934-0.80224-2.5914-0.68968-1.5408 0.0875-2.2662 0.26954-3.1528 0.79121-1.6329 0.96078-3.5738 3.3027-3.8968 4.7021-0.30066 1.3024-0.31642 3.714-0.03061 4.6842 0.11004 0.37353 0.0434 1.1648-0.15471 1.8372-0.1914 0.64956-0.34928 1.2713-0.35084 1.3817-0.0054 0.38289 1.709 1.2408 2.4931 1.2476 0.43351 4e-3 1.0838 0.23777 1.445 0.52004 0.61422 0.47992 0.62189 0.51361 0.11823 0.51906-0.29624 3e-3 -0.67852-0.13392-0.84951-0.30474-0.57938-0.57874-0.64309 0.0132-0.08559 0.79527 0.69618 0.97662 0.69243 1.0878-0.03702 1.0993-0.32514 5e-3 -0.88673 0.17808-1.248 0.38437-1.0754 0.61407-2.0177 0.50214-2.2098-0.26245-0.09067-0.36087-0.32024-0.65611-0.51017-0.65611-0.5402 0-0.69919 0.29028-0.43206 0.78886 0.20764 0.38755 0.09586 0.48207-0.73177 0.61874-1.2123 0.20019-1.7309 0.17727-3.1444-0.13892zm126.84-0.35009c-0.3394-0.36086-0.74873-0.65612-0.90963-0.65612-0.16091 0-0.7483-0.67596-1.3053-1.5021l-1.0128-1.5021 0.14046-5.4557c0.19088-7.4136-3e-3 -8.0743-2.3663-8.0743-1.4154 0-2.1127-0.35133-2.4485-1.2337-0.32321-0.84917 0.19584-1.4967 1.5625-1.9492 2.217-0.73408 5.6553 0.0868 5.9249 1.4146 0.0656 0.32301 0.17821 2.493 0.25026 4.8221 0.10003 3.2333 0.0417 4.5311-0.24642 5.4875-0.487 1.6164-0.47582 2.3263 0.0542 3.4421 0.86939 1.8301 3.6157 2.8267 4.9699 1.8035 0.28051-0.21193 0.82816-0.38908 1.217-0.39368 0.38886-5e-3 0.78755-0.13849 0.88597-0.29756 0.0984-0.15908 0.57832-0.45591 1.0664-0.65965 0.48811-0.20373 0.88749-0.54597 0.88749-0.76056 0-0.21458 0.15047-0.39015 0.33436-0.39015 0.1839 0 0.56815-0.43377 0.85389-0.96393 0.42549-0.78945 0.52166-1.4901 0.5313-3.8711 7e-3 -1.7444-0.11438-3.1715-0.30364-3.568-0.17347-0.36346-0.25867-0.95727-0.18934-1.3196 0.17083-0.89267-0.62577-1.5696-2.0601-1.7506-1.3856-0.17486-2.0566-0.71249-2.0566-1.6477 0-1.0234 0.97895-1.3827 4.139-1.5193l2.694-0.11645 0.38029 0.90916c0.33546 0.80198 0.54111 4.4523 0.41789 7.4176-0.018 0.43303-0.0949 2.1362-0.17086 3.7848-0.076 1.6486-0.0699 3.2691 0.0135 3.6011 0.1846 0.73469 0.94676 1.175 2.0667 1.1939 1.6749 0.0284 2.8419 1.9477 1.9208 3.1592-0.69976 0.92039-1.5724 1.1487-3.7198 0.97325-2.0017-0.16356-2.071-0.19284-2.9906-1.2635l-0.94138-1.0961-1.9053 0.91554c-3.8821 1.8655-6.5811 2.2402-7.6846 1.0668zm-93.557 0.16543c-1.0354-0.21991-2.9127-1.3032-4.38-2.5275-2.1117-1.7619-3.6692-5.5716-3.376-8.2577 0.087207-0.79909 0.19021-2.0446 0.2289-2.7677 0.083966-1.5695 1.2768-4.1648 2.1884-4.7614 0.34802-0.22777 0.63276-0.56913 0.63276-0.75855 0-0.61343 4.1286-2.0214 6.3285-2.1582 1.8463-0.11481 2.1079-0.0636 3.5469 0.69407 0.85448 0.44992 1.6718 0.81954 1.8163 0.82138 0.45604 6e-3 2.7587 2.2834 2.7587 2.7286 0 0.42311 0.38947 1.2404 0.94988 1.9933 0.38275 0.5142 0.6568 2.6702 0.46266 3.6398-0.25856 1.2914-0.93588 1.4263-7.4555 1.4851-5.6176 0.0505-7.8992 0.30216-8.2768 0.91253-0.32357 0.52297 0.43902 2.3373 1.478 3.5163 1.4276 1.62 2.791 2.2862 5.4132 2.6449 2.4668 0.33747 2.4696 0.33656 4.6307-1.5153 1.2857-1.1017 1.7472-1.3374 2.82-1.4404 1.4353-0.13776 1.7506 0.17553 1.4362 1.4268-0.26129 1.0399-1.6053 2.1529-3.9543 3.2745-1.7432 0.83235-2.4606 1.0246-4.2038 1.1267-1.156 0.0676-2.5261 0.033-3.0447-0.0772zm7.947-12.654c0.28849-0.15422 0.46706-0.42998 0.39683-0.6128-0.07024-0.18283-0.21109-0.99914-0.31302-1.814-0.10192-0.8149-0.28779-1.4184-0.41303-1.3411-0.12524 0.0774-1.1175-0.28693-2.2051-0.80945-2.0787-0.99875-4.6406-1.4852-4.975-0.94477-0.10054 0.16251-0.39603 0.29546-0.65664 0.29546-0.26061 0-0.92352 0.35698-1.4731 0.79328-0.54962 0.43629-1.2795 0.86352-1.6219 0.94936-0.63023 0.15801-1.3921 1.5149-1.3921 2.4794 0 0.52687 0.7355 1.0133 1.9705 1.3031 1.1745 0.27568 10.074 0.0271 10.682-0.29846zm40.396 12.654c-1.0354-0.21991-2.9127-1.3032-4.38-2.5275-2.1117-1.7619-3.6692-5.5716-3.376-8.2577 0.08721-0.79909 0.19021-2.0446 0.2289-2.7677 0.08397-1.5695 1.2768-4.1648 2.1884-4.7614 0.34802-0.22777 0.63276-0.56913 0.63276-0.75855 0-0.61343 4.1286-2.0214 6.3285-2.1582 1.8463-0.11481 2.1079-0.0636 3.5469 0.69407 0.85448 0.44992 1.6718 0.81954 1.8163 0.82138 0.45604 6e-3 2.7587 2.2834 2.7587 2.7286 0 0.42311 0.38947 1.2404 0.94988 1.9933 0.38275 0.5142 0.6568 2.6702 0.46266 3.6398-0.25856 1.2914-0.93588 1.4263-7.4555 1.4851-5.6176 0.0505-7.8992 0.30216-8.2768 0.91253-0.32357 0.52297 0.43902 2.3373 1.478 3.5163 1.4276 1.62 2.791 2.2862 5.4132 2.6449 2.4668 0.33747 2.4696 0.33656 4.6307-1.5153 1.2857-1.1017 1.7472-1.3374 2.82-1.4404 1.4353-0.13776 1.7506 0.17553 1.4362 1.4268-0.26129 1.0399-1.6053 2.1529-3.9543 3.2745-1.7432 0.83235-2.4606 1.0246-4.2038 1.1267-1.156 0.0676-2.5261 0.033-3.0447-0.0772zm7.947-12.654c0.28849-0.15422 0.46706-0.42998 0.39683-0.6128-0.07023-0.18283-0.21109-0.99914-0.31301-1.814-0.10193-0.8149-0.28779-1.4184-0.41303-1.3411-0.12524 0.0774-1.1175-0.28693-2.2051-0.80945-2.0787-0.99875-4.6406-1.4852-4.975-0.94477-0.10054 0.16251-0.39603 0.29546-0.65664 0.29546-0.26061 0-0.92352 0.35698-1.4731 0.79328-0.54962 0.43629-1.2795 0.86352-1.6219 0.94936-0.63023 0.15801-1.3921 1.5149-1.3921 2.4794 0 0.52687 0.7355 1.0133 1.9705 1.3031 1.1745 0.27568 10.074 0.0271 10.682-0.29846zm180.63 12.707c-0.0963-0.0962-0.17516-0.50038-0.17516-0.89812 0-0.52243 0.30038-0.97999 1.0823-1.6486 1.2997-1.1113 1.7242-2.6625 1.288-4.7069-0.15373-0.72049-0.20547-2.6891-0.12068-4.5928 0.0816-1.8325 0.0441-3.6862-0.0833-4.1192-0.1419-0.48227-0.65741-1.0737-1.3304-1.5264-1.1622-0.78178-1.448-1.6469-0.63893-1.9335 0.2529-0.0896 0.65296-0.32796 0.88905-0.52973 0.37025-0.31644 0.64894-0.29291 2.0279 0.17112 2.091 0.70364 2.5048 0.67958 4.3453-0.25271 2.0723-1.0497 3.2656-1.0398 4.4936 0.0372 0.85182 0.74707 0.97712 0.78495 1.3885 0.41981 0.70912-0.62938 2.3677-1.23 3.8905-1.4087 1.2902-0.15148 1.45-0.10746 2.1506 0.59256 1.0788 1.078 2.2146 4.5243 1.8709 5.6766-0.14005 0.46938-0.23789 1.9754-0.21744 3.3467 0.0204 1.3713-0.0498 2.9372-0.15606 3.4799-0.28232 1.4414 0.42907 3.05 2.0436 4.621 1.3094 1.2742 1.342 1.3416 1.1017 2.2821l-0.24757 0.9691-2.2332 0.10098c-1.6382 0.0741-2.6183-0.0222-3.6783-0.36145-1.865-0.5968-1.9798-1.1511-0.64089-3.0931l0.97646-1.4162-0.19258-5.3076c-0.10594-2.9192-0.29401-5.574-0.41796-5.8997-0.12393-0.32563-0.47508-0.72555-0.78031-0.88873-0.46248-0.24726-0.70157-0.18495-1.4353 0.37405-1.4952 1.1392-2.2619 4.4372-2.1911 9.426l0.044 3.1053 0.87379 0.66572c0.90793 0.69177 1.1513 1.6332 0.54533 2.1096-0.99041 0.77856-5.3607 0.88732-5.9116 0.14712-0.51895-0.69739-0.40146-1.0358 0.75747-2.182 1.074-1.0622 1.0837-1.0888 0.88918-2.4378-0.1082-0.75014-0.21566-3.4719-0.2388-6.0485-0.0385-4.2906-0.0846-4.7156-0.547-5.0534-0.80639-0.58901-2.6111 0.22729-3.1574 1.4282-0.14319 0.31477-0.43876 0.62931-0.65684 0.69897-0.32069 0.10246-0.40992 0.7602-0.46699 3.4423-0.0473 2.2232 0.0298 3.4363 0.23374 3.6819 0.16981 0.20437 0.31709 1.3173 0.33328 2.5183 0.0267 1.9784 0.0785 2.1768 0.64228 2.4574 0.93306 0.46456 1.163 0.78707 0.97735 1.3712-0.12903 0.40606-0.60114 0.63108-1.9828 0.94498-1.8353 0.41698-5.0226 0.55835-5.3442 0.23704zm-220.37-0.6887c-1.4792-0.3861-1.2409-1.5543 0.54708-2.6818 1.7818-1.1236 1.7673-1.031 1.8003-11.481 0.0254-8.0422-0.03054-9.5341-0.39127-10.435-0.30034-0.74979-0.61945-1.0984-1.114-1.2169-2.1994-0.52705-3.4203-1.8102-2.5498-2.6797 0.44067-0.4402 3.179-0.59904 11.053-0.64107 3.88-0.0208 6.7215 0.74503 7.0921 1.9113 0.09083 0.28588 0.50783 0.72198 0.92666 0.96912 1.0958 0.64663 1.9599 2.7149 1.9582 4.6875-0.0011 1.3378-0.17559 1.9312-1.1264 3.8308-1.0992 2.1961-1.1168 2.2719-0.76286 3.298 0.19923 0.57763 0.74021 1.5201 1.2022 2.0943 0.6194 0.76992 0.91087 1.484 1.1101 2.7196 0.3579 2.2199 0.19833 2.7664-0.87235 2.9876-0.77694 0.16056-0.8142 0.20946-0.39751 0.52171 0.63311 0.47441 0.57694 1.0396-0.22339 2.2477-0.86984 1.313-2.4793 2.4065-4.9608 3.3706-1.1982 0.46553-11.881 0.8651-13.291 0.49713zm12.892-3.2574c1.5181-0.50665 2.686-1.3922 3.4372-2.6064 0.56421-0.91191 0.57985-1.064 0.28564-2.7779-0.31303-1.8234-1.3448-3.6172-2.0807-3.6172-0.18063 0-0.32842-0.12413-0.32842-0.27585 0-0.63209-1.9649-1.1103-4.4665-1.087-4.4264 0.0413-4.7932 0.38812-4.9092 4.6434-0.03934 1.4435-0.13343 2.9652-0.20908 3.3818-0.19128 1.0532 0.30454 2.7229 0.85402 2.876 0.87287 0.24327 6.2444-0.14559 7.4171-0.53694zm0.78821-14.6c2.1153-1.0738 2.8816-3.4439 1.8427-5.6994-0.34981-0.75949-1.8709-1.8817-3.1299-2.3091-1.071-0.36355-3.2274-0.39496-4.343-0.0633-0.44377 0.13196-1.1616 0.34117-1.5951 0.46492-0.9832 0.28066-1.4094 1.3852-1.4302 3.7062-0.0081 0.91043-0.14823 2.1845-0.31129 2.8314-0.16305 0.64682-0.2437 1.2288-0.17922 1.2932 0.29399 0.29366 3.9638 0.60422 5.8618 0.49605 1.4874-0.0848 2.4475-0.29528 3.2842-0.72001zm37.603 17.948c-0.48832-0.12372-0.97758-0.36997-1.0873-0.54723-0.10967-0.17725-0.3284-0.24263-0.48608-0.1453-0.46989 0.29011-1.2759-0.30343-2.165-1.5943-0.73512-1.0673-0.83057-1.4059-0.78875-2.7982 0.06434-2.1419 1.2009-4.3169 2.694-5.1551 0.88578-0.49729 1.4973-0.60182 3.7589-0.6425 1.9598-0.0353 2.8758-0.16298 3.338-0.46549 0.35034-0.22931 1.3162-0.55777 2.1464-0.72992 0.83018-0.17216 1.8179-0.5781 2.195-0.90208 0.59366-0.5101 0.66114-0.71924 0.50328-1.5598-0.20384-1.0854-1.4287-2.6261-2.547-3.2037-0.87738-0.45321-2.9775-0.49646-4.1574-0.0856-1.0185 0.35464-1.3248 1.0478-1.1514 2.6057 0.1107 0.99463 0.03452 1.2567-0.51418 1.7685-0.71026 0.66259-2.1636 0.9985-3.198 0.73917-0.73241-0.18363-1.7254-1.8177-1.725-2.8387 1.13e-4 -0.33054 0.33651-1.3096 0.74755-2.1757l0.74734-1.5747 2.8112-0.88911c2.3801-0.75277 3.0483-0.86435 4.3573-0.72768 3.2599 0.34035 5.6478 1.7742 6.6182 3.9739 0.5041 1.1428 0.59251 1.8731 0.66777 5.5164 0.09714 4.7019 0.57598 8.8283 1.0424 8.9827 0.16954 0.0561 0.69101-0.31813 1.1588-0.83168 1.4453-1.5866 2.4411-1.0736 1.8355 0.94555-0.27444 0.91499-0.50392 1.1386-1.7565 1.7114-1.6551 0.7569-2.0982 0.70346-3.866-0.46619-1.1443-0.75715-1.3222-0.80183-1.9652-0.49349-2.9033 1.3923-7.1125 2.1155-9.2141 1.5831zm7.3952-2.7593c0.52665-0.24963 1.1986-0.82671 1.4931-1.2824 0.29458-0.45568 0.77206-1.1828 1.0611-1.6158 0.40476-0.60646 0.5258-1.2264 0.52687-2.6983 0.0016-2.2524-0.22394-2.4545-1.8279-1.6371-0.60059 0.30606-2.0013 0.66177-3.1126 0.79046-3.5709 0.41349-4.6123 0.73676-5.755 1.7865-1.1535 1.0596-1.6517 1.8471-1.6517 2.6107 0 0.7192 1.3378 1.883 2.6607 2.3147 1.5327 0.50015 5.3074 0.34661 6.6054-0.26868zm84.44 2.6864c-0.74165-0.55853-0.47646-1.5849 0.48473-1.8761 0.43352-0.13131 1.1429-0.39188 1.5764-0.57906 0.43352-0.18719 0.99688-0.40389 1.2519-0.48155 0.25505-0.0777 0.57867-0.44324 0.71916-0.81236 0.22985-0.60386 0.63745-12.352 0.59411-17.124-0.0211-2.3284-0.4763-4.3379-1.1129-4.9134-0.26194-0.23679-0.81408-0.52008-1.227-0.62951-0.60078-0.15923-0.76729-0.36714-0.83355-1.0409-0.13536-1.3764 0.95604-1.6669 6.6512-1.7698 2.6011-0.0471 5.0248-0.0931 5.3861-0.10242 1.3175-0.034 4.14 0.56369 4.9306 1.044 0.45916 0.27891 1.0291 0.98358 1.3132 1.6237 0.27605 0.62199 0.69146 1.2872 0.92308 1.4782 0.23167 0.19098 0.35764 0.51274 0.27993 0.71499-0.0777 0.20225 0.0342 0.543 0.24865 0.75722 0.29881 0.29848 0.38149 1.0114 0.35393 3.0518l-0.0359 2.6623-0.93613 0.8261c-1.0031 0.88517-2.1428 2.3586-2.4344 3.1474-0.10404 0.28138 0.0491 0.99579 0.36547 1.7059 0.29944 0.67199 0.6623 2.2847 0.80633 3.5838 0.28549 2.5753 1.2374 5.1178 1.9161 5.1178 0.2218 0 0.64453-0.4724 0.93943-1.0498 0.2949-0.57738 0.65975-1.0498 0.81083-1.0498 0.39047 0 1.3869 0.55036 1.6155 0.89225 0.53555 0.8012-0.0102 3.6553-0.75353 3.9402-0.21582 0.0827-0.32274 0.26296-0.23764 0.40052 0.1461 0.23617-1.3975 0.79877-2.2002 0.80193-0.84328 3e-3 -3.211-0.92063-3.7049-1.4457-0.70906-0.75394-1.301-3.5784-1.4568-6.9512-0.11194-2.4221-0.21476-2.8975-0.84948-3.927-0.86629-1.4051-1.4628-1.5819-4.9029-1.4523-3.278 0.12346-3.418 0.29824-3.6688 4.5814-0.22642 3.8666-0.0928 4.168 2.3305 5.2541 1.87 0.83808 2.099 1.081 1.8718 1.9854-0.30012 1.1944-1.2965 1.56-4.3444 1.5939-1.5235 0.017-3.5385 0.11556-4.4778 0.21912-1.2864 0.14184-1.8274 0.0982-2.1925-0.17675zm13.328-17.103c0.47972-0.20021 1.3626-0.44679 1.962-0.54794 1.2044-0.20327 2.2671-1.2565 3.1959-3.1674 0.41056-0.84464 0.46463-1.2396 0.265-1.935-0.33894-1.1804-0.98542-2.1215-1.4574-2.1215-0.21342 0-0.38804-0.0962-0.38804-0.21384 0-0.60299-1.8933-1.068-4.3775-1.0751-4.7339-0.0136-5.4263 0.4577-5.4738 3.7261-0.0173 1.1856-0.12395 2.569-0.23711 3.0743-0.16747 0.74783-0.0978 1.0557 0.37438 1.6553 0.54413 0.69099 0.66584 0.72598 1.9625 0.56416 0.89957-0.11228 1.4448-0.0717 1.561 0.11619 0.24711 0.3994 1.5669 0.36136 2.6131-0.0753zm-226.91 16.615c-0.66615-0.38757-0.61904-1.8237 0.06569-2.0025 0.28901-0.0755 0.52547-0.29268 0.52547-0.48263 0-0.39413 0.40267-0.54038 2.177-0.79069 1.753-0.24729 2.077-0.93154 2.0226-4.2713-0.0227-1.3948-0.02668-2.7723-0.0088-3.061 0.0285-0.46096-0.21703-6.7317-0.31856-8.1359-0.02086-0.28869 0.05118-1.9522 0.16011-3.6967 0.23249-3.7232 0.25614-3.6808-2.2964-4.1176-1.3832-0.23667-1.9401-0.2192-2.9446 0.0925-1.8494 0.57369-2.2074 1.2203-2.2422 4.0488-0.0324 2.6389-0.52931 4.3292-1.2727 4.3292-0.35254 0-0.50416-0.29694-0.6365-1.2466-0.26063-1.8703-0.47355-4.7884-0.43454-5.9556 0.04955-1.4824 0.89105-3.2428 1.6374-3.4255 0.33564-0.0821 2.9158-0.0979 5.7336-0.0352 2.8178 0.0628 6.0554 0.0108 7.1945-0.1154 2.085-0.2311 5.5869 0.0719 6.5053 0.56286 0.68713 0.36734 0.95748 1.6428 1.1477 5.4145l0.17479 3.4662-0.68223 0.68149c-0.73938 0.73856-1.2033 0.6714-1.2033-0.17417 0-0.2937-0.21012-0.58887-0.46694-0.65596-0.8574-0.22397-1.4347-3.4456-0.98156-5.4774 0.39177-1.7566-1.9677-2.4392-4.8159-1.3934l-1.6665 0.61193 0.01306 2.2308c0.01994 3.4079 0.3083 10.152 0.52028 12.168 0.12286 1.1686 0.0941 1.8382-0.08182 1.9054-0.30447 0.11649-0.20531 2.7014 0.11954 3.1165 0.11296 0.14435 0.28486 0.63403 0.38199 1.0882 0.26456 1.237 0.99103 1.7392 2.7126 1.8752 1.767 0.13952 2.1635 0.38847 2.1635 1.3585 0 1.1503-0.72386 1.5832-2.648 1.5836-0.9279 2e-4 -2.6921 0.17719-3.9203 0.39331-2.5505 0.44878-5.9549 0.50533-6.6341 0.1102z" style="stroke-width:.26259">
      <title>The Beauty Room Melton Park</title>
    </path>
  </g>
</svg>
